<svg width="512.157" height="512.157" xmlns="http://www.w3.org/2000/svg">

 <g>
  <title>background</title>
  <rect fill="none" id="canvas_background" height="602" width="802" y="-1" x="-1"/>
 </g>
 <g>
  <title>Layer 1</title>
  <g stroke="null" id="svg_1">
   <g stroke="null" id="svg_2">
    <g stroke="null" id="svg_3">
     <path stroke="null" id="svg_4" d="m340.9909,162.80823c6.04049,-32.11913 -3.82055,-76.2708 -39.75133,-97.31054c-22.69362,-12.4632 -49.46105,-15.76085 -74.60159,-9.19039c-34.82443,9.11676 -60.42164,33.58101 -68.47094,65.44112c-1.79452,6.46224 -2.55519,13.15777 -2.25391,19.84798c0.38554,4.151 1.16796,8.25765 2.33727,12.26539c1.57344,5.1006 2.35268,10.40433 2.31054,15.73246c-0.16219,6.34248 -4.62471,12.92314 -8.56623,18.72984c-4.29671,6.33672 -8.00762,11.80899 -5.85564,16.85592c2.04234,3.42095 5.63682,5.67497 9.66487,6.06173c0.23196,0.0408 0.46664,0.06431 0.70222,0.07008c1.07644,-0.12907 2.1556,0.22043 2.94073,0.95315s1.19378,1.77102 1.11404,2.82972c0,7.86512 0.20025,11.92342 3.51882,13.78448c-0.2895,0.59167 -0.49156,1.22104 -0.60029,1.86815c-0.33344,2.22031 0.4834,4.45704 2.17825,5.96726c1.68534,1.59804 3.82055,2.66517 6.1311,3.06391c0.16219,0.03681 0.31713,0.06476 0.468,0.09979c0.09152,0.56284 0.13184,1.13233 0.12096,1.70227c-0.02764,1.40732 -0.12957,2.81287 -0.30581,4.20999c-0.64197,6.05419 -1.52133,14.34643 10.8505,18.30494c2.48316,0.67949 5.05692,0.98597 7.63386,0.90924c11.71491,-0.50917 23.29255,-2.68203 34.36957,-6.44982c3.19807,5.45986 5.12624,11.54332 5.64588,17.81705c-0.00045,1.00371 0.40684,1.96661 1.13217,2.67671c0.72488,0.70965 1.70844,1.10838 2.73414,1.10838l96.65007,0c1.65317,-0.01996 3.10791,-1.07423 3.60943,-2.61683c0.50832,-1.56389 -0.0453,-3.27148 -1.3818,-4.26188c-3.99996,-2.97343 -17.24663,-34.30041 -17.65392,-45.55278c1.1675,-2.5951 2.73143,-5.50909 4.58349,-8.89411c10.08439,-17.39881 17.09803,-36.33932 20.74552,-56.02319zm-33.08971,64.5372c0.09831,9.05157 8.43349,32.96849 15.59436,45.2423l-85.51914,0c-0.96273,-5.79916 -2.88184,-11.40627 -5.68258,-16.60222c11.20116,-4.29781 21.06809,-9.82375 25.80425,-15.88814c1.28892,-1.66191 0.96182,-4.03169 -0.73213,-5.29841c-1.69349,-1.26717 -4.11503,-0.95359 -5.41438,0.70033c-10.94111,14.01556 -56.46472,24.65673 -66.6284,21.40211c-6.4369,-2.06064 -6.18048,-4.47966 -5.56116,-10.32672c0.20523,-1.65747 0.32121,-3.32426 0.34749,-4.99326c0,-6.37752 -2.62768,-8.28115 -6.5769,-9.17753c-0.74526,-0.10423 -1.457,-0.37345 -2.0804,-0.78727c0.75886,-0.71009 1.6201,-1.30708 2.5561,-1.77235c1.61376,-0.77618 2.46821,-2.53877 2.06137,-4.25346s-1.96623,-2.92863 -3.76438,-2.92996c-1.39675,0 -2.94844,0 -3.76392,-0.09979c-0.24555,-2.48111 -0.32891,-4.97464 -0.24918,-7.46594c0.07566,-2.98452 -1.08324,-5.87234 -3.21347,-8.00838c-2.13023,-2.13604 -5.05194,-3.33934 -8.1014,-3.33668c-2.78624,-0.57482 -3.63209,-1.31418 -3.70367,-1.48583c-0.56269,-1.31374 3.16363,-6.80242 5.16475,-9.7519c4.29263,-6.32785 9.63497,-14.20406 9.85379,-22.72516c0.10828,-4.72848 -0.42904,-9.44986 -1.5979,-14.03906c4.21561,-3.63163 9.19053,-6.31765 14.57772,-7.86956c1.91956,-0.32821 3.89213,-0.19294 5.74601,0.39341c2.0582,0.5553 4.18616,-0.62804 4.75338,-2.64255c0.56722,-2.01496 -0.64152,-4.09822 -2.69926,-4.65352c-3.04448,-0.91722 -6.272,-1.0902 -9.40074,-0.50474c-5.4633,1.36252 -10.56915,3.84496 -14.98003,7.28321c-0.52825,-2.20479 -0.88571,-4.4455 -1.06919,-6.70307c-0.26186,-5.89807 0.42994,-11.79968 2.05004,-17.48618c7.47529,-29.57815 30.42217,-51.42733 62.96596,-59.94711c23.11768,-6.06971 47.74219,-3.06391 68.62951,8.3774c32.76669,19.18446 41.69173,59.81183 36.11925,89.44143c-3.47442,18.92189 -10.22393,37.12437 -19.95676,53.8224c-2.1257,3.88266 -3.96054,7.23531 -5.28571,10.3378c-0.22381,0.5553 -0.30762,1.15495 -0.24329,1.7484z"/>
     <path stroke="null" id="svg_5" d="m315.57446,171.4553c0.55317,-5.83819 -3.52924,-11.12729 -9.41751,-12.20063l-7.40326,-10.0464c0.45395,-0.81964 0.80189,-1.69162 1.03567,-2.59598l7.16948,-2.80666c3.31133,3.69017 8.67451,4.87085 13.28019,2.92331c4.60569,-1.94754 7.40462,-6.57933 6.93073,-11.46925s-4.11368,-8.92294 -9.01158,-9.98741l-5.80807,-11.3424c4.07426,-4.06407 4.42628,-10.46022 0.82092,-14.92879c-3.60536,-4.46901 -10.04226,-5.61598 -15.02443,-2.67715l-6.47677,-5.26426c0.4902,-1.2543 0.74662,-2.58401 0.7575,-3.92702c0.01042,-4.63711 -2.86689,-8.8125 -7.26281,-10.53917c-4.39592,-1.72711 -9.4234,-0.65687 -12.68987,2.7011l-11.46166,-2.80489c-1.37274,-4.8673 -5.88147,-8.24966 -11.03942,-8.28027c-5.15795,-0.0306 -9.70836,3.29765 -11.14135,8.14809l-15.31755,2.99915c-3.99543,-4.21797 -10.59,-4.82428 -15.31755,-1.40777c-4.72756,3.41607 -6.079,9.76388 -3.13962,14.74472l-7.50564,9.78561c-5.37858,0.95182 -9.34185,5.4603 -9.50177,10.80883c-0.15993,5.34853 3.52743,10.07612 8.83987,11.33442l6.2063,14.99975c-3.40511,3.27237 -4.41042,8.25499 -2.53208,12.54969c1.87834,4.29426 6.25569,7.02064 11.02447,6.86629s8.95313,-3.15705 10.53789,-7.56352l20.75548,0c1.73291,5.21858 7.14049,8.37829 12.65453,7.39454l12.83439,19.11216c-3.29275,3.57397 -3.91841,8.79432 -1.56075,13.01761c2.35766,4.22285 7.18443,6.5261 12.03476,5.74239c4.85033,-0.78372 8.66499,-4.48276 9.51174,-9.22366l9.5806,-7.49699c1.82306,1.12524 3.93291,1.72578 6.08806,1.73287c5.98975,0.00399 10.99638,-4.4597 11.5491,-10.29833zm0.04938,-38.90514c1.93361,-0.00399 3.57274,1.39135 3.83732,3.26616c0.26503,1.8748 -0.92603,3.65336 -2.7876,4.16342s-3.82237,-0.40494 -4.59028,-2.14225c-0.01314,-0.0346 -0.00589,-0.07052 -0.01993,-0.10512l-0.02446,-0.03681c-0.17986,-0.43244 -0.27545,-0.89371 -0.28134,-1.36075c0.00272,-2.08903 1.732,-3.78243 3.86631,-3.78464zm-15.38279,-27.26292c0.37105,-1.75682 1.95264,-3.01689 3.78522,-3.01556c2.13521,0 3.86586,1.69429 3.86586,3.78464s-1.73064,3.78464 -3.86586,3.78464c-0.47842,-0.00577 -0.95095,-0.09935 -1.39403,-0.27588l-0.03307,-0.02129c-0.03398,-0.01331 -0.06977,-0.00621 -0.10465,-0.01907c-1.68353,-0.71009 -2.62496,-2.48022 -2.25346,-4.23749zm-3.84592,9.25248l0,0l-7.14411,17.48751l-12.5236,-9.80823c1.69893,-1.41885 2.94028,-3.29011 3.57455,-5.38668l15.31755,-2.99915c0.24329,0.25237 0.50923,0.4768 0.77562,0.70654zm-4.11594,30.38759c-0.52055,1.82025 -2.3341,2.98496 -4.24732,2.72682c-1.91277,-0.25813 -3.3376,-1.85884 -3.33579,-3.7496c0.00227,-2.08947 1.73155,-3.78287 3.86586,-3.78464c0.47842,0.00577 0.95095,0.09935 1.39403,0.27588l0.03307,0.02129c0.03488,0.01375 0.07158,0.00798 0.10647,0.0204c1.77187,0.75223 2.70424,2.66917 2.18369,4.48986zm-11.44943,-61.5793c2.13521,0 3.86586,1.69429 3.86586,3.78464s-1.7311,3.78464 -3.86586,3.78464s-3.86586,-1.69429 -3.86586,-3.78464c0.00227,-2.08947 1.73155,-3.78243 3.86586,-3.78464zm-20.34457,0.81432l8.83036,2.16132c-0.02039,0.27233 -0.08336,0.53224 -0.08336,0.80944c0.0068,6.26797 5.19555,11.34772 11.59803,11.35437c2.07315,-0.01064 4.10507,-0.57082 5.87875,-1.62155l6.47723,5.26426c-0.4902,1.2543 -0.74708,2.58401 -0.75795,3.92702c0,0.22886 0.05572,0.44309 0.06886,0.66884l-12.59111,2.46514c-1.57887,-3.59792 -4.93958,-6.146 -8.89288,-6.74255l-14.15503,-13.85722c1.57162,-1.15318 2.81977,-2.67671 3.6271,-4.42909zm12.61285,29.46416c0,2.09036 -1.73064,3.78464 -3.86586,3.78464c-2.13431,-0.00222 -3.86405,-1.69517 -3.86586,-3.78464c0,-2.09036 1.73064,-3.78464 3.86586,-3.78464s3.86586,1.69429 3.86586,3.78464zm-23.19605,-37.84821c2.13521,0 3.86586,1.69429 3.86586,3.78464s-1.73064,3.78464 -3.86586,3.78464s-3.86586,-1.69429 -3.86586,-3.78464c0.00181,-2.08903 1.73155,-3.78243 3.86586,-3.78464zm0.7661,17.45868l11.60709,11.36191c-1.80449,1.33458 -3.17043,3.15705 -3.92883,5.24253l-9.157,0c-0.91289,-2.50595 -2.69699,-4.61759 -5.04016,-5.96593l6.51891,-10.63852zm-24.03102,-6.77271l12.59111,-2.46514c0.9881,2.23096 2.68068,4.09378 4.82858,5.31482l-7.01771,11.45062l-12.13172,-7.62074c1.16886,-1.79674 1.79226,-3.88133 1.7986,-6.01117c0,-0.22886 -0.05572,-0.44309 -0.06886,-0.6684zm15.53275,27.16224c0,2.09036 -1.73064,3.78464 -3.86586,3.78464c-2.13431,-0.00222 -3.86405,-1.69517 -3.86586,-3.78464c0,-2.09036 1.73064,-3.78464 3.86586,-3.78464s3.86586,1.69429 3.86586,3.78464zm-27.06191,-30.27848c2.13521,0 3.86586,1.69429 3.86586,3.78464s-1.73064,3.78464 -3.86586,3.78464s-3.86586,-1.69429 -3.86586,-3.78464c0.00181,-2.08947 1.73155,-3.78243 3.86586,-3.78464zm-4.20791,14.33756c2.3554,0.95093 4.97764,1.05959 7.40688,0.30737l11.93645,7.49788c-1.27035,1.21838 -2.23715,2.70731 -2.82475,4.35059l-16.88917,0c-0.84403,-2.34273 -2.44872,-4.35059 -4.56899,-5.71533l4.93958,-6.4405zm-11.25643,19.72557c-2.13521,0 -3.86586,-1.69429 -3.86586,-3.78464c0.00227,-2.08947 1.73155,-3.78287 3.86586,-3.78464c2.13521,0 3.86586,1.69429 3.86586,3.78464s-1.73064,3.78464 -3.86586,3.78464zm11.59803,34.06312c-2.13521,0 -3.86586,-1.69473 -3.86586,-3.78464c0,-2.09036 1.73064,-3.78464 3.86586,-3.78464s3.86586,1.69473 3.86586,3.78464c-0.00181,2.08947 -1.73155,3.78243 -3.86586,3.78464zm2.19864,-14.92169c-0.72397,-0.14104 -1.46063,-0.21378 -2.19864,-0.21777c-0.38283,0 -0.74436,0.07496 -1.11767,0.11088l-5.26804,-12.73242c2.64535,-1.31241 4.67545,-3.5682 5.67307,-6.30212l16.88917,0c0.69633,1.90629 1.9019,3.59481 3.49119,4.88948l-17.46907,14.25196zm29.44223,7.35196l-20.75548,0c-0.41273,-1.13366 -1.00848,-2.19547 -1.76417,-3.14463l18.98679,-15.48985l6.46545,14.19652c-1.32109,1.23213 -2.32595,2.75299 -2.93258,4.43796zm6.30688,-26.49339l9.15746,0c0.91289,2.50595 2.69699,4.61759 5.04016,5.96593l-8.03798,13.11475c-0.52282,-0.08782 -1.05062,-0.14016 -1.58068,-0.15657c-0.29946,0 -0.58081,0.06476 -0.87484,0.08649l-6.6367,-14.57219c1.32109,-1.23257 2.32595,-2.75344 2.93258,-4.43841zm4.5785,34.06312c-2.13521,0 -3.86586,-1.69473 -3.86586,-3.78464c0,-2.09036 1.7311,-3.78464 3.86586,-3.78464c2.13521,0 3.86586,1.69473 3.86586,3.78464c-0.00181,2.08947 -1.73155,3.78243 -3.86586,3.78464zm16.50227,-24.6177l10.79658,8.4559c-1.69848,1.4193 -2.94028,3.29055 -3.57455,5.38668l-13.0505,2.55518c-0.53777,-1.20951 -1.2862,-2.31789 -2.21223,-3.27591l8.04069,-13.12184zm6.69378,62.46547c-2.13521,0 -3.86586,-1.69429 -3.86586,-3.78464s1.73064,-3.78464 3.86586,-3.78464s3.86586,1.69429 3.86586,3.78464c-0.00181,2.08947 -1.73155,3.78287 -3.86586,3.78464zm15.46388,-18.92366c0.01404,1.2645 0.24646,2.51748 0.68727,3.70614l-6.52616,5.10725c-2.44012,-3.73142 -6.94205,-5.64924 -11.39416,-4.85355l-12.83439,-19.11216c1.14666,-1.25164 1.99296,-2.73791 2.47727,-4.35059l13.0505,-2.55518c2.48814,5.75303 9.25985,8.45236 15.14494,6.03689l4.76924,6.47199c-3.34078,2.07483 -5.36771,5.67586 -5.37451,9.54921zm3.76528,-34.9768l7.37653,-18.05567c0.15449,0.00621 0.29992,0.04524 0.45622,0.04524c0.46573,-0.01774 0.93011,-0.06387 1.3904,-0.13749l4.68089,9.1416c-3.72677,1.96839 -6.05634,5.77432 -6.0713,9.92c0,0.15346 0.04032,0.29583 0.04621,0.44797l-5.19782,2.03447c-0.66462,-1.28846 -1.57479,-2.44119 -2.68114,-3.39611zm7.83275,38.76144c-2.13521,0 -3.86586,-1.69429 -3.86586,-3.78464c0.00227,-2.08947 1.73155,-3.78287 3.86586,-3.78464c2.13521,0 3.86586,1.69429 3.86586,3.78464s-1.73064,3.78464 -3.86586,3.78464z"/>
    </g>
   </g>
  </g>
  <g id="svg_6"/>
  <g id="svg_7"/>
  <g id="svg_8"/>
  <g id="svg_9"/>
  <g id="svg_10"/>
  <g id="svg_11"/>
  <g id="svg_12"/>
  <g id="svg_13"/>
  <g id="svg_14"/>
  <g id="svg_15"/>
  <g id="svg_16"/>
  <g id="svg_17"/>
  <g id="svg_18"/>
  <g id="svg_19"/>
  <g id="svg_20"/>
  <text xml:space="preserve" text-anchor="start" font-family="'Palatino Linotype', 'Book Antiqua', Palatino, serif" font-size="76" id="svg_21" y="350.14993" x="114.78349" stroke-width="0" stroke="#000" fill="#000000">JENYUS</text>
  <text xml:space="preserve" text-anchor="start" font-family="'Palatino Linotype', 'Book Antiqua', Palatino, serif" font-size="24" id="svg_22" y="404.53162" x="151.05543" stroke-width="0" stroke="#000" fill="#000000">REALISING IDEAS</text>
  <line stroke="#000" stroke-linecap="undefined" stroke-linejoin="undefined" id="svg_23" y2="363.0785" x2="401.5785" y1="363.0785" x1="130.5785" stroke-width="7.5" fill="none"/>
 </g>
</svg>